# This file uses centimeters as units for non-parametric coordinates.

mtllib arrow.mtl
g default
v 0.707107 -0.035821 0.006056
v 0.000000 -0.035821 -0.701050
v 0.000000 0.035821 -0.701050
v 0.707107 0.035821 0.006056
v -0.008125 -0.035821 0.008321
v 0.704842 -0.035821 0.008321
v 0.704842 0.035821 0.008321
v -0.008125 0.035821 0.008321
v -0.008125 0.035821 -0.692925
v -0.008125 -0.035821 -0.692925
vt 0.625000 0.000000
vt 0.875000 0.000000
vt 0.875000 0.250000
vt 0.625000 0.250000
vt 0.377133 0.750000
vt 0.555375 0.750000
vt 0.555375 0.500000
vt 0.377133 0.500000
vt 0.624199 0.000000
vt 0.624199 0.250000
vt 0.625000 0.500000
vt 0.622127 0.500000
vt 0.498163 0.376036
vt 0.626404 0.000000
vt 0.626404 0.250000
vt 0.801716 0.250000
vt 0.801716 0.000000
vt 0.625000 0.750000
vt 0.622127 0.750000
vt 0.625000 1.000000
vt 0.624199 1.000000
vt 0.498163 0.873964
vn 0.707107 0.000000 -0.707107
vn 0.707107 0.000000 -0.707107
vn 0.707107 0.000000 -0.707107
vn 0.707107 0.000000 -0.707107
vn 0.000000 0.000000 1.000000
vn 0.000000 0.000000 1.000000
vn 0.000000 0.000000 1.000000
vn 0.000000 0.000000 1.000000
vn 0.707105 0.000000 0.707109
vn 0.707105 0.000000 0.707109
vn 0.707105 0.000000 0.707109
vn 0.707105 0.000000 0.707109
vn 0.000000 1.000000 0.000000
vn 0.000000 1.000000 0.000000
vn 0.000000 1.000000 0.000000
vn 0.000000 1.000000 0.000000
vn 0.000000 1.000000 0.000000
vn -1.000000 0.000000 0.000000
vn -1.000000 0.000000 0.000000
vn -1.000000 0.000000 0.000000
vn -1.000000 0.000000 0.000000
vn -0.707107 0.000000 -0.707107
vn -0.707107 0.000000 -0.707107
vn -0.707107 0.000000 -0.707107
vn -0.707107 0.000000 -0.707107
vn 0.000000 -1.000000 0.000000
vn 0.000000 -1.000000 0.000000
vn 0.000000 -1.000000 0.000000
vn 0.000000 -1.000000 0.000000
vn 0.000000 -1.000000 0.000000
s off
g pCube9
usemtl initialShadingGroup
f 1/1/1 2/2/2 3/3/3 4/4/4
f 5/5/5 6/6/6 7/7/7 8/8/8
f 6/9/9 1/1/10 4/4/11 7/10/12
f 7/10/13 4/4/14 3/11/15 9/12/16 8/13/17
f 5/14/18 8/15/19 9/16/20 10/17/21
f 9/12/22 3/11/23 2/18/24 10/19/25
f 10/19/26 2/18/27 1/20/28 6/21/29 5/22/30
